<?xml version="1.0" standalone="no"?>
<!DOCTYPE svg PUBLIC "-//W3C//DTD SVG 20010904//EN"
 "http://www.w3.org/TR/2001/REC-SVG-20010904/DTD/svg10.dtd">
<svg version="1.0" xmlns="http://www.w3.org/2000/svg"
 width="987.000000pt" height="165.000000pt" viewBox="0 0 987.000000 165.000000"
 preserveAspectRatio="xMidYMid meet">

<g transform="translate(0.000000,165.000000) scale(0.100000,-0.100000)"
fill="#000000" stroke="none">
<path d="M468 1640 c-151 -14 -230 -45 -315 -123 -61 -56 -100 -123 -125 -213
-21 -75 -22 -99 -22 -469 0 -331 2 -401 17 -464 21 -95 48 -149 103 -210 62
-68 127 -108 225 -134 l84 -22 4490 0 c4819 0 4562 -3 4681 50 72 32 172 131
207 206 46 98 52 163 52 564 0 397 -6 461 -50 561 -32 72 -131 172 -206 207
-114 53 -65 52 -1854 52 l-1660 0 -40 -22 c-58 -31 -110 -89 -141 -156 -22
-50 -27 -79 -34 -195 -5 -82 -17 -171 -30 -222 -85 -335 -350 -599 -691 -692
-121 -33 -356 -33 -479 1 -282 76 -513 270 -635 533 -52 113 -75 215 -85 376
-7 121 -13 151 -35 200 -30 66 -83 124 -140 155 l-40 22 -1595 1 c-877 1
-1634 -2 -1682 -6z"/>
</g>
</svg>
